<mxfile host="app.diagrams.net" modified="2024-05-15T20:59:37.186Z" agent="Mozilla/5.0 (Windows NT 10.0; Win64; x64) AppleWebKit/537.36 (KHTML, like Gecko) Chrome/124.0.0.0 Safari/537.36" version="24.4.2" etag="fWgUj-5XZzOq8FQDPm0q" type="github">
  <diagram name="Page-1" id="Y0XXugs0XjG0WqRuEUsn">
    <mxGraphModel>
      <root>
        <mxCell id="0" />
        <mxCell id="1" parent="0" />
      </root>
    </mxGraphModel>
  </diagram>
</mxfile>
